<svg xmlns="http://www.w3.org/2000/svg" viewBox="0 0 512 512">
  <defs>
    <linearGradient id="gradient" x1="0%" y1="0%" x2="100%" y2="100%">
      <stop offset="0%" stop-color="#6c63ff" />
      <stop offset="100%" stop-color="#00d4ff" />
    </linearGradient>
  </defs>
  <rect width="100%" height="100%" rx="128" fill="url(#gradient)" />
  <!-- Modern representation of a neural brain network -->
  <g fill="#ffffff" opacity="0.95">
    <path d="M256,110 C180,110 130,160 130,225 C130,255 145,280 160,295 C150,315 155,340 175,355 C185,362 200,365 210,360 C220,380 235,390 256,390 C277,390 292,380 302,360 C312,365 327,362 337,355 C357,340 362,315 352,295 C367,280 382,255 382,225 C382,160 332,110 256,110 Z M256,340 C215,340 185,310 185,270 C185,230 215,200 256,200 C297,200 327,230 327,270 C327,310 297,340 256,340 Z" />
    <circle cx="256" cy="270" r="35" fill="#ffffff" opacity="0.8" />
    <circle cx="210" cy="180" r="15" fill="#ffffff" />
    <circle cx="302" cy="180" r="15" fill="#ffffff" />
    <circle cx="256" cy="145" r="18" fill="#ffffff" />
  </g>
</svg>
